<svg xmlns="http://www.w3.org/2000/svg" viewBox="0 0 197.86 16.75"><g data-name="Layer 2"><path d="M127 .61v4.61q0 1.17-.07 2.3c0 .75-.08 1.47-.14 2.14s-.15 1.3-.25 1.87a8.11 8.11 0 01-.46 1.45 2.7 2.7 0 01-.54.91.86.86 0 01-.64.28 2.12 2.12 0 01-.44 0l-.23-.07-.33-.1v2.47l.61.17a2.17 2.17 0 00.56.06 2.85 2.85 0 001.8-.58 4.34 4.34 0 001.22-1.61 9.83 9.83 0 00.75-2.31 25.17 25.17 0 00.4-2.92c.09-1 .15-2.14.17-3.29s0-2.2 0-3.3h4.89v13.58h2.5V.39H127zm24.86 1.72a6.66 6.66 0 00-2.37-1.72 8.61 8.61 0 00-6.39 0 6.73 6.73 0 00-2.39 1.73A7.6 7.6 0 00139.23 5a11.06 11.06 0 00-.31 5.4 9.11 9.11 0 00.61 1.95 8.22 8.22 0 001 1.72 6.93 6.93 0 001.53 1.38 6.82 6.82 0 001.92 1 8.51 8.51 0 004.7 0A6.77 6.77 0 00152 14a8.35 8.35 0 001-1.72 9.1 9.1 0 00.61-1.95 11 11 0 00-.31-5.4 7.65 7.65 0 00-1.44-2.6zm-.5 6a9.28 9.28 0 01-.32 2.51 5.4 5.4 0 01-.95 1.95 4.23 4.23 0 01-1.57 1.21 6 6 0 01-4.52 0 4.28 4.28 0 01-1.58-1.22 5.35 5.35 0 01-1-1.95 9.27 9.27 0 01-.32-2.51 8.39 8.39 0 01.35-2.47 5.64 5.64 0 011-1.95 4.53 4.53 0 011.59-1.24 5.43 5.43 0 014.3 0A4.52 4.52 0 01150 4a5.66 5.66 0 011 1.95 8.39 8.39 0 01.35 2.47zm14.78-6.68a4.24 4.24 0 00-1.59-1 6.62 6.62 0 00-2.23-.34h-6.56v16h2.49V9.89h4.07a6.61 6.61 0 002.23-.34 4.24 4.24 0 001.59-1 4 4 0 00.94-1.51 6.24 6.24 0 000-3.9 4 4 0 00-.94-1.48zm-1.89 5.29a3 3 0 01-2.14.62h-3.87v-4.9h3.87a3 3 0 012.14.62 2.5 2.5 0 01.64 1.83 2.5 2.5 0 01-.64 1.84zm8 5.39V.39h-2.49v15.92h2.7l7.31-12v12h2.5V.39h-2.7zm23.27-2v.2a5.28 5.28 0 01-.43 1.43 4.63 4.63 0 01-.85 1.26 4.09 4.09 0 01-1.24.89 3.8 3.8 0 01-1.62.33A4.22 4.22 0 01188 12.8a5.8 5.8 0 01-1-1.95 8.77 8.77 0 01-.35-2.55 8.63 8.63 0 01.35-2.52 5.62 5.62 0 011-1.95 4.31 4.31 0 011.52-1.2 4.62 4.62 0 012-.42 4.45 4.45 0 011.36.2A3.83 3.83 0 01194 3a3.59 3.59 0 01.86 1 4.38 4.38 0 01.55 1.27v.18h2.41v-.28a5 5 0 00-.26-1.17 5.49 5.49 0 00-.6-1.13 6 6 0 00-.88-1.09 5.7 5.7 0 00-1.22-.91 6.6 6.6 0 00-1.58-.61 8.24 8.24 0 00-3.64 0 6.54 6.54 0 00-4.42 3.29 8.77 8.77 0 00-.82 2.2 12.48 12.48 0 00-.3 2.85 11 11 0 00.34 2.86 8.26 8.26 0 00.9 2.14 6 6 0 001.31 1.52 6.85 6.85 0 001.54 1 7.14 7.14 0 001.61.51 8.23 8.23 0 001.52.16 6.62 6.62 0 001.91-.26 6.36 6.36 0 001.58-.71 6 6 0 001.19-1.1 7.5 7.5 0 00.92-1.34 7.27 7.27 0 00.61-1.4 6.82 6.82 0 00.29-1.42v-.26zM5.29 3.7a4.88 4.88 0 014.32-2.22 4.58 4.58 0 012.23.6 5.32 5.32 0 011.76 1.54h.34l.55-2.39a9.48 9.48 0 00-2.36-.85A11.74 11.74 0 009.59.09a10.28 10.28 0 00-6.76 2.12A8.15 8.15 0 000 8.87a7.05 7.05 0 002.6 5.68 9.69 9.69 0 006.45 2 12.8 12.8 0 002.49-.24 9.58 9.58 0 002.28-.75l.53-1.95-.35-.09a6.49 6.49 0 01-2 1.23 6.11 6.11 0 01-2.3.47 5.14 5.14 0 01-4.23-1.83A7.51 7.51 0 014 8.51 8.45 8.45 0 015.29 3.7zM23.55.34l-.92-.07-6.88 16.09 1.16-.12 1.13.12q.22-.75.57-1.74t1.12-3.1h5.6q.41 1 .89 2.38.27.77.82 2.47l.86-.06q.83-.06 1.19-.06l.92.06q.84.06 1.18.06L24.46.27zm-3.22 9.76l2.25-5.39 2.15 5.39zM45.41.54a8.63 8.63 0 00-.89-.07v6.3l-2.31.1h-1.36l-1.59-.06q-1.33-.06-2.1-.06V.47a8.72 8.72 0 00-.92.07 5.88 5.88 0 01-1.81 0 8.63 8.63 0 00-.89-.07v15.88a4.69 4.69 0 00.92 0 5.77 5.77 0 01.89-.06q.32 0 .92.06t.89.06v-7.8l1.76-.06h5.6v7.8a6 6 0 00.92-.06 5.27 5.27 0 01.87-.06 6.05 6.05 0 01.94.06 5.76 5.76 0 00.89.06V.47a8.72 8.72 0 00-.92.07 5.88 5.88 0 01-1.81 0zM60.47.07a9.85 9.85 0 00-7 2.43A7.71 7.71 0 0051 8.34a7.7 7.7 0 002.43 6.08 9.35 9.35 0 006.47 2.18 9.77 9.77 0 007-2.48 7.71 7.71 0 002.53-5.85 8.15 8.15 0 00-2-5.44Q65.12.07 60.47.07zM64.14 13a4.58 4.58 0 01-4.06 2.24 4.41 4.41 0 01-3.87-1.95A7.31 7.31 0 0155 9.06a9.69 9.69 0 011.46-5.76 4.53 4.53 0 013.89-1.85 4.45 4.45 0 013.93 2.08 7.66 7.66 0 011.16 4.3 9.4 9.4 0 01-1.3 5.17zM78.21.47h-5.92v15.88q.28 0 .89-.06t.92-.06q.32 0 .92.06t.89.06V9.41a11.38 11.38 0 005.36-1 4.26 4.26 0 002.1-4q0-3.94-5.16-3.94zm.95 6.29A2.72 2.72 0 0177.5 8a7.42 7.42 0 01-1.59.17V1.74h1.5a1.93 1.93 0 011.6.85 3.6 3.6 0 01.64 2.22 3.74 3.74 0 01-.49 1.94zm14.89-.83q-2.77 3.28-4.76 5.34V.42a6.34 6.34 0 00-.92.1 4.3 4.3 0 01-1.81 0 6.37 6.37 0 00-.89-.1v15.92h1.81q1.82-2.37 4.44-5.52t4.72-5.45v11a6 6 0 00.92-.06 5.26 5.26 0 01.87-.06 6.05 6.05 0 01.94.06 5.76 5.76 0 00.89.06V.42h-1.82q-1.62 2.22-4.38 5.51zm22.2-5.39a8.63 8.63 0 00-.89-.07v6.3l-2.31.1h-1.37l-1.59-.06q-1.33-.06-2.1-.06V.47a8.72 8.72 0 00-.92.07 5.88 5.88 0 01-1.81 0 8.63 8.63 0 00-.89-.07v15.88a4.69 4.69 0 00.92 0 5.76 5.76 0 01.89-.06q.32 0 .92.06t.89.06v-7.8l1.76-.06h5.6v7.8a6 6 0 00.92-.06 5.27 5.27 0 01.87-.06 6.05 6.05 0 01.94.06 5.76 5.76 0 00.89.06V.47a8.73 8.73 0 00-.92.07 5.88 5.88 0 01-1.8 0z" fill="#a1a2a4" data-name="Layer 1"/></g></svg>