<svg xmlns="http://www.w3.org/2000/svg" viewBox="0 0 110 35"><g data-name="Layer 2"><path d="M.41 27.66V35H110zm7.33-2.36A8.39 8.39 0 0012 24.18a4.81 4.81 0 001.74-2.27 1.06 1.06 0 00.07-.23l-.65-.11-.27.29a5.89 5.89 0 01-4.5 1.74c-3.06-.07-5.12-2.45-5.14-5.94S5.11 11 8.7 11a5.39 5.39 0 014.4 2.2l.26.3.51-.43s-.14-.27-.22-.42a5.77 5.77 0 00-5.38-3C3.55 9.68 0 12.62 0 17.95c0 4.18 3.12 7.35 7.74 7.35zm39.64-7.76c0 4.95 3 7.74 7.51 7.74a7.62 7.62 0 008-7.83c0-3.36-1.75-7.72-7.51-7.72-5.08 0-8 3.5-8 7.81zM59.71 17c0 3.6-1.59 6.7-4.72 6.7s-4.43-2.86-4.43-5.7c0-4.86 1.87-6.61 4.67-6.61 3.07 0 4.48 2.88 4.48 5.61zm6.2-6.82V25h3v-6.56c3.89 0 7.85-.8 7.85-4.43 0-2.31-2-3.79-5-3.79zm7.75 4.16c0 1.79-1.15 2.43-2.55 2.78a16.47 16.47 0 01-2.24.14v-5.72H71a2.74 2.74 0 012.66 2.84zM44.65 25V10.17h-3.29v6.19h-6.71v-6.19h-3.29V25h3.29v-6.78h6.71V25zm65.1 0V10.17h-3.29v6.19h-6.72v-6.19h-3.29V25h3.29v-6.78h6.71V25zM0 0v7.53L109.6 0zm14.5 25h2.15l1.58-4.42h5.27C24.12 22 25.12 25 25.12 25H29l-6.31-14.83H21zm8.5-5.75h-4.15l2.13-5zM92.83 25V10.17H91s-5.8 7.37-8.59 10.16V10.21H79V25h1.71s6.14-7.12 8.7-9.86V25z" fill="#a1a2a4" data-name="Layer 1"/></g></svg>