<svg xmlns="http://www.w3.org/2000/svg" viewBox="0 0 132 48.01"><g data-name="Layer 2"><g data-name="Layer 1"><path d="M23.71 25.46L39.36 9.74a2.58 2.58 0 10-3.65-3.66L20.06 21.8 4.4 6.08A2.58 2.58 0 00.76 9.74l15.65 15.72L.76 41.18a2.6 2.6 0 000 3.66 2.58 2.58 0 003.65 0l15.65-15.72 15.65 15.72a2.58 2.58 0 003.65 0 2.6 2.6 0 000-3.66zm-5.51-9.3a2.58 2.58 0 001.82.77 2.58 2.58 0 001.82-.75l6.38-6.35a2.58 2.58 0 00-3.63-3.68L20 10.67l-4.47-4.56a2.57 2.57 0 00-3.65 0 2.6 2.6 0 000 3.66zm21.15 1.1a2.57 2.57 0 00-3.65 0l-6.38 6.35a2.6 2.6 0 000 3.66l6.32 6.4a2.57 2.57 0 003.65 0 2.6 2.6 0 000-3.66l-4.51-4.57 4.55-4.52a2.6 2.6 0 00.02-3.67zm-17.43 17.5A2.58 2.58 0 0020.1 34a2.76 2.76 0 00-1.83.75l-6.38 6.35a2.58 2.58 0 003.63 3.68l4.55-4.53 4.51 4.56a2.57 2.57 0 003.65 0 2.6 2.6 0 000-3.66zM.77 33.66a2.57 2.57 0 003.65 0l6.38-6.35a2.6 2.6 0 000-3.66l-6.32-6.4a2.58 2.58 0 00-3.66 3.66l4.51 4.57L.78 30a2.6 2.6 0 00-.01 3.66z" fill="#fff"/><path d="M50.2 22.35h2.86a1.2 1.2 0 001.08-.57l3.49-5.06 3.46 5.06a1.15 1.15 0 001 .57h2.95c.47 0 .67-.48.35-.89l-5.58-7.61 5.39-7.39c.32-.45.13-.89-.35-.89h-2.76a1.23 1.23 0 00-1.08.6L57.68 11l-3.36-4.82a1.19 1.19 0 00-1.08-.6h-2.88c-.51 0-.67.45-.35.89l5.42 7.39-5.55 7.61c-.35.47-.16.88.32.88zm15.86-4.58c0 3.15 2.16 4.87 5.42 4.87 3.52 0 5.08-1.53 5.77-2.61l.13 1.72c0 .35.22.6.73.6h2.35c.51 0 .76-.22.76-.73V11.24c0-3.95-2.22-6-7.17-6a17.32 17.32 0 00-6.34 1.16.7.7 0 00-.44.89L67.84 9a.64.64 0 00.92.45 12.75 12.75 0 014.76-1c2.54 0 3.62.93 3.62 2.9v.73c-6.58.21-11.08 1.01-11.08 5.69zM77.13 16c0 2.07-1.36 3.73-4.28 3.73-1.81 0-2.79-.92-2.79-2.23 0-2.36 2.85-2.74 7.07-2.87zm7.61 6.35h2.73c.51 0 .73-.22.73-.73v-8.95c0-2.33 1.3-3.85 3.71-3.85S95 10 95 12.16v9.46c0 .51.26.73.76.73h2.73c.51 0 .73-.22.73-.73V11.4c0-3.85-1.78-6.21-5.74-6.21a5.76 5.76 0 00-5.33 2.67L88 6.21a.65.65 0 00-.73-.63h-2.5c-.51 0-.73.22-.73.73v15.31c-.04.51.19.73.7.73zM101 9.14h1.74v8.18c0 3.85 1.52 5.29 5.2 5.29a9.62 9.62 0 002.66-.35c.41-.13.63-.29.6-.73l-.19-1.78c0-.45-.22-.67-.64-.64a7.76 7.76 0 01-1.33.16c-1.75 0-2.19-.57-2.19-2.39V9.14h3.49c.51 0 .73-.22.73-.73V6.62c0-.51-.22-.73-.73-.73h-3.52V2c0-.48-.25-.67-.76-.67h-2.54c-.51 0-.73.19-.73.67v3.89H101c-.51 0-.76.22-.76.73v1.79c.04.5.3.73.76.73zm12.67 13.21h2.76c.51 0 .73-.22.73-.73V6.3c0-.51-.22-.73-.73-.73h-2.76c-.51 0-.73.22-.73.73v15.32c0 .51.22.73.73.73zm-.03-18.66h2.82c.51 0 .7-.22.7-.73V.73c0-.51-.19-.73-.7-.73h-2.82c-.51 0-.7.22-.7.73V3c0 .47.19.69.7.69zm6.05 18.09a15.35 15.35 0 005.49.92c3.81 0 6.82-1.18 6.82-4.87 0-3.15-2.35-4.27-5.17-5.29-2.09-.73-3.42-1.21-3.42-2.52s.89-1.65 2.86-1.65a11.53 11.53 0 013.61.63.61.61 0 00.89-.48l.48-1.59c.16-.45 0-.67-.44-.86a14.13 14.13 0 00-5.17-.89c-4.09 0-6.34 1.62-6.34 4.74 0 3.69 2.69 4.43 5.2 5.28 2.09.73 3.39 1.24 3.39 2.52s-1.11 1.78-3.33 1.78a11.74 11.74 0 01-4-.7.61.61 0 00-.89.48l-.48 1.65c-.1.43.06.69.5.85zm-63.33 9.98a4.92 4.92 0 00-4.87 2.89v-2.28c0-.2-.07-.3-.31-.3h-.84c-.23 0-.33.1-.33.33v15.31c0 .21.1.31.33.31h.87a.27.27 0 00.31-.31v-5.1c.77 1.94 2.55 2.84 4.84 2.84 3.54 0 5.74-2.33 5.74-6.83s-2.2-6.86-5.74-6.86zm-.26 12.36c-2.91 0-4.59-1.92-4.59-5.5s1.68-5.53 4.59-5.53 4.46 1.77 4.46 5.53-1.56 5.5-4.46 5.5zm8.55-16.58v17.35c0 .2.1.31.33.31h.87a.27.27 0 00.31-.31v-7.65a4 4 0 014.36-4.07c2.52 0 3.54 1.31 3.54 3.48v8.24a.27.27 0 00.31.31h.89c.2 0 .28-.1.28-.31v-8.44c0-2.84-1.53-4.68-4.67-4.68-2.83 0-4.23 1.48-4.72 2.64v-6.87c0-.2-.1-.28-.31-.28H65c-.25 0-.35.07-.35.28zm13.94 5.53l.23.74a.26.26 0 00.38.18 10.62 10.62 0 014.18-.87c2.62 0 3.62 1.05 3.62 3.33v1c-5.43.13-9.38.64-9.38 4.3 0 2.2 1.53 3.69 4.38 3.69 3.34 0 4.56-1.66 5-2.66v2.13c0 .2.08.31.28.31h.81a.27.27 0 00.31-.31v-8.5c0-3-1.43-4.63-4.95-4.63a12.46 12.46 0 00-4.72.95.28.28 0 00-.14.34zM87 40.13c0 2.2-1.61 4-4.77 4-2.14 0-3.16-1.08-3.16-2.48 0-2.71 3.54-2.89 7.93-3zM97.41 32A4.82 4.82 0 0093 35.19v-2.81a.27.27 0 00-.31-.31h-.87c-.23 0-.33.1-.33.33v12.49c0 .21.1.31.33.31h.87a.27.27 0 00.31-.31v-6.37c0-2.46 1.79-4.94 3.93-4.94a4.67 4.67 0 01.48.05.25.25 0 00.28-.28v-1.1c-.03-.25-.13-.25-.28-.25zm2.49 13.2h.87a.27.27 0 00.31-.31v-7.8a3.8 3.8 0 014.05-3.92c2.24 0 3.11 1.25 3.11 3.33v8.4a.27.27 0 00.31.31h.87a.27.27 0 00.31-.31v-8a3.73 3.73 0 014-3.71c2.27 0 3.14 1.25 3.14 3.35v8.37a.27.27 0 00.31.31h.87c.23 0 .31-.1.31-.31v-8.57c0-2.74-1.4-4.58-4.28-4.58-2.68 0-4.05 1.28-4.66 2.69-.46-1.72-1.76-2.69-4-2.69a4.34 4.34 0 00-4.36 2.58v-2a.27.27 0 00-.31-.31h-.85c-.23 0-.33.1-.33.33v12.53c0 .21.1.31.33.31zm26.41-13.44a12.46 12.46 0 00-4.72.95.28.28 0 00-.18.36l.23.74a.26.26 0 00.36.19 10.62 10.62 0 014.18-.87c2.63 0 3.6 1.05 3.6 3.33v1c-5.43.13-9.38.64-9.38 4.3 0 2.2 1.53 3.69 4.38 3.69 3.34 0 4.56-1.66 5-2.66v2.13c0 .2.08.31.28.31h.94a.27.27 0 00.31-.31v-8.5c-.05-3.07-1.48-4.66-5-4.66zm3.49 8.37c0 2.2-1.61 4-4.77 4-2.14 0-3.16-1.08-3.16-2.48 0-2.71 3.54-2.89 7.93-3z" fill="#00371b"/></g></g></svg>